<svg width="4314" height="1011" viewBox="0 0 4314 1011" fill="none" xmlns="http://www.w3.org/2000/svg">
<path fill-rule="evenodd" clip-rule="evenodd" d="M25.9629 0.478516C12.1558 0.478516 0.962891 11.6714 0.962891 25.4785C0.962891 39.2856 12.1558 50.4785 25.9629 50.4785H395.984C409.792 50.4785 420.984 39.2856 420.984 25.4785C420.984 11.6714 409.792 0.478516 395.984 0.478516H25.9629ZM25.9629 80.4785C12.1558 80.4785 0.962891 91.6714 0.962891 105.479C0.962891 119.286 12.1558 130.479 25.9629 130.479H168.929C164.056 139.524 160.986 149.684 160.2 160.479H25.9629C12.1558 160.479 0.962891 171.671 0.962891 185.479C0.962891 199.286 12.1558 210.479 25.9629 210.479H174.606C183.43 222.44 195.723 231.686 210 236.732V240.479H25.9629C12.1558 240.479 0.962891 251.671 0.962891 265.479C0.962891 279.286 12.1558 290.479 25.9629 290.479H212.785C216.944 298.511 225.331 304 235 304C244.669 304 253.056 298.511 257.215 290.479H485.991C499.798 290.479 510.991 279.286 510.991 265.479C510.991 251.671 499.798 240.479 485.991 240.479H260V236.732C274.277 231.686 286.57 222.44 295.394 210.479H573.038C586.845 210.479 598.038 199.286 598.038 185.479C598.038 171.671 586.845 160.479 573.038 160.479H309.8C309.014 149.684 305.944 139.524 301.071 130.479H485.991C499.798 130.479 510.991 119.286 510.991 105.479C510.991 91.6714 499.798 80.4785 485.991 80.4785H25.9629ZM260 210.479V236.732C254.864 238.548 249.471 239.819 243.891 240.479H226.109C220.529 239.819 215.136 238.548 210 236.732V210.479H260ZM226.109 240.479H210V279C210 283.138 211.005 287.041 212.785 290.479H257.215C258.995 287.041 260 283.138 260 279V240.479H243.891C240.975 240.823 238.008 241 235 241C231.992 241 229.025 240.823 226.109 240.479ZM260 210.479V202C260 188.193 248.807 177 235 177C221.193 177 210 188.193 210 202V210.479H174.606C165.426 198.034 160 182.651 160 166C160 164.143 160.068 162.302 160.2 160.479H309.8C309.932 162.302 310 164.143 310 166C310 182.651 304.574 198.034 295.394 210.479H260ZM301.071 130.479H168.929C181.592 106.974 206.43 91 235 91C263.57 91 288.408 106.974 301.071 130.479ZM0.962891 345.479C0.962891 359.286 12.1558 370.479 25.9629 370.479H395.984C409.792 370.479 420.984 359.286 420.984 345.479C420.984 331.671 409.792 320.479 395.984 320.479H25.9629C12.1558 320.479 0.962891 331.671 0.962891 345.479ZM51 804.021C51 817.829 39.8071 829.021 26 829.021C12.1929 829.021 1 817.829 1 804.021V434C1 420.193 12.1929 409 26 409C39.8071 409 51 420.193 51 434V804.021Z" fill="#FAFAFA"/>
<path d="M127 434L380 731" stroke="#FAFAFA" stroke-width="50" stroke-linecap="round"/>
<circle cx="422" cy="789" r="50" stroke="#FAFAFA" stroke-width="50"/>
<path d="M114 434V535" stroke="#FAFAFA" stroke-width="50" stroke-linecap="round"/>
<path d="M116 432H217" stroke="#FAFAFA" stroke-width="50" stroke-linecap="round"/>
<path d="M683.75 829C665.75 829 649.5 824.5 635 815.5C620.5 806.5 608.75 794.75 599.75 780.25C590.75 765.75 586.25 749.5 586.25 731.5V491.5C586.25 473.5 590.75 457.25 599.75 442.75C608.75 428.25 620.5 416.5 635 407.5C649.5 398.5 665.75 394 683.75 394H931.25C949.25 394 965.5 398.5 980 407.5C995 416 1006.75 427.75 1015.25 442.75C1024.25 457.75 1028.75 474 1028.75 491.5V652H667.25V729.25C667.25 734.25 669 738.75 672.5 742.75C676.5 746.25 681 748 686 748H1028.75V829H683.75ZM667.25 576.25H947V493.75C947 488.75 945.25 484.5 941.75 481C938.25 477 934 475 929 475H686C681 475 676.5 477 672.5 481C669 484.5 667.25 488.75 667.25 493.75V576.25ZM1111.54 647.5V566.5H1411.54V647.5H1111.54ZM1498.24 829V289H1939.99C1957.99 289 1974.49 293.5 1989.49 302.5C2004.49 311 2016.24 322.75 2024.74 337.75C2033.74 352.25 2038.24 368.5 2038.24 386.5V731.5C2038.24 749.5 2033.74 766 2024.74 781C2016.24 795.5 2004.49 807.25 1989.49 816.25C1974.49 824.75 1957.99 829 1939.99 829H1498.24ZM1597.24 748H1938.49C1943.49 748 1947.74 746.25 1951.24 742.75C1954.74 738.75 1956.49 734.25 1956.49 729.25V388.75C1956.49 383.75 1954.74 379.5 1951.24 376C1947.74 372 1943.49 370 1938.49 370H1597.24C1592.24 370 1587.99 372 1584.49 376C1580.99 379.5 1579.24 383.75 1579.24 388.75V729.25C1579.24 734.25 1580.99 738.75 1584.49 742.75C1587.99 746.25 1592.24 748 1597.24 748ZM2215.98 829C2197.98 829 2181.73 824.5 2167.23 815.5C2152.73 806.5 2140.98 794.75 2131.98 780.25C2122.98 765.75 2118.48 749.5 2118.48 731.5V491.5C2118.48 473.5 2122.98 457.25 2131.98 442.75C2140.98 428.25 2152.73 416.5 2167.23 407.5C2181.73 398.5 2197.98 394 2215.98 394H2559.48V475H2218.23C2213.23 475 2208.73 477 2204.73 481C2201.23 484.5 2199.48 488.75 2199.48 493.75V729.25C2199.48 734.25 2201.23 738.75 2204.73 742.75C2208.73 746.25 2213.23 748 2218.23 748H2560.98V829H2215.98ZM2637.78 829V491.5C2637.78 473.5 2642.28 457.25 2651.28 442.75C2660.28 428.25 2672.03 416.5 2686.53 407.5C2701.53 398.5 2717.78 394 2735.28 394H2978.28V475H2737.53C2732.53 475 2728.03 477 2724.03 481C2720.53 484.5 2718.78 488.75 2718.78 493.75V829H2637.78ZM3094.23 995.5V913.75H3360.48C3365.48 913.75 3369.73 911.75 3373.23 907.75C3377.23 904.25 3379.23 900 3379.23 895V829H3115.23C3097.73 829 3081.48 824.75 3066.48 816.25C3051.48 807.25 3039.48 795.25 3030.48 780.25C3021.98 765.25 3017.73 749 3017.73 731.5V395.5H3098.73V729.25C3098.73 734.25 3100.48 738.75 3103.98 742.75C3107.98 746.25 3112.48 748 3117.48 748H3360.48C3365.48 748 3369.73 746.25 3373.23 742.75C3377.23 738.75 3379.23 734.25 3379.23 729.25V395.5H3460.23V898C3460.23 916 3455.73 932.25 3446.73 946.75C3438.23 961.75 3426.48 973.5 3411.48 982C3396.98 991 3380.73 995.5 3362.73 995.5H3094.23ZM3537.23 1001.5V394H3882.23C3900.23 394 3916.48 398.5 3930.98 407.5C3945.98 416.5 3957.73 428.25 3966.23 442.75C3975.23 457.25 3979.73 473.5 3979.73 491.5V731.5C3979.73 749.5 3975.23 765.75 3966.23 780.25C3957.73 794.75 3945.98 806.5 3930.98 815.5C3916.48 824.5 3900.23 829 3882.23 829H3618.23V1001.5H3537.23ZM3636.98 748H3879.98C3884.98 748 3889.23 746.25 3892.73 742.75C3896.73 738.75 3898.73 734.25 3898.73 729.25V493.75C3898.73 488.75 3896.73 484.5 3892.73 481C3889.23 477 3884.98 475 3879.98 475H3636.98C3631.98 475 3627.48 477 3623.48 481C3619.98 484.5 3618.23 488.75 3618.23 493.75V729.25C3618.23 734.25 3619.98 738.75 3623.48 742.75C3627.48 746.25 3631.98 748 3636.98 748ZM4132.03 829C4114.03 829 4097.53 824.5 4082.53 815.5C4068.03 806.5 4056.28 794.75 4047.28 780.25C4038.78 765.75 4034.53 749.5 4034.53 731.5V256.75H4115.53V394H4294.03V475H4115.53V729.25C4115.53 734.25 4117.28 738.75 4120.78 742.75C4124.78 746.25 4129.28 748 4134.28 748H4294.03V829H4132.03Z" fill="#FAFAFA"/>
</svg>
